<mxfile host="app.diagrams.net" modified="2021-07-14T16:55:39.393Z" agent="5.0 (Windows NT 10.0; Win64; x64) AppleWebKit/537.36 (KHTML, like Gecko) Chrome/91.0.4472.124 Safari/537.36" etag="tXgYlkbkbyPsqbWHwHlD" version="14.8.6" type="github">
  <diagram id="8frxbMPDA_A4CYh-UbdC" name="Page-1">
    <mxGraphModel dx="545" dy="474" grid="1" gridSize="10" guides="1" tooltips="1" connect="1" arrows="1" fold="1" page="1" pageScale="1" pageWidth="827" pageHeight="1169" math="0" shadow="0">
      <root>
        <mxCell id="0" />
        <mxCell id="1" parent="0" />
        <mxCell id="PGVaX1nrfL_rUsU0WxcV-19" style="edgeStyle=orthogonalEdgeStyle;rounded=0;orthogonalLoop=1;jettySize=auto;html=1;exitX=0.75;exitY=0;exitDx=0;exitDy=0;" edge="1" parent="1" source="PGVaX1nrfL_rUsU0WxcV-2" target="PGVaX1nrfL_rUsU0WxcV-18">
          <mxGeometry relative="1" as="geometry" />
        </mxCell>
        <mxCell id="PGVaX1nrfL_rUsU0WxcV-22" style="edgeStyle=orthogonalEdgeStyle;rounded=0;orthogonalLoop=1;jettySize=auto;html=1;exitX=1;exitY=0.5;exitDx=0;exitDy=0;entryX=0;entryY=0.5;entryDx=0;entryDy=0;" edge="1" parent="1" source="PGVaX1nrfL_rUsU0WxcV-2" target="PGVaX1nrfL_rUsU0WxcV-4">
          <mxGeometry relative="1" as="geometry" />
        </mxCell>
        <mxCell id="PGVaX1nrfL_rUsU0WxcV-23" style="edgeStyle=orthogonalEdgeStyle;rounded=0;orthogonalLoop=1;jettySize=auto;html=1;exitX=0.5;exitY=1;exitDx=0;exitDy=0;" edge="1" parent="1" source="PGVaX1nrfL_rUsU0WxcV-2" target="PGVaX1nrfL_rUsU0WxcV-9">
          <mxGeometry relative="1" as="geometry" />
        </mxCell>
        <mxCell id="PGVaX1nrfL_rUsU0WxcV-27" style="edgeStyle=orthogonalEdgeStyle;rounded=0;orthogonalLoop=1;jettySize=auto;html=1;exitX=0;exitY=0.5;exitDx=0;exitDy=0;entryX=0;entryY=0.5;entryDx=0;entryDy=0;" edge="1" parent="1" source="PGVaX1nrfL_rUsU0WxcV-2" target="PGVaX1nrfL_rUsU0WxcV-12">
          <mxGeometry relative="1" as="geometry" />
        </mxCell>
        <mxCell id="PGVaX1nrfL_rUsU0WxcV-2" value="User" style="swimlane;" vertex="1" parent="1">
          <mxGeometry x="40" y="40" width="110" height="140" as="geometry" />
        </mxCell>
        <mxCell id="PGVaX1nrfL_rUsU0WxcV-4" value="Admin" style="swimlane;" vertex="1" parent="1">
          <mxGeometry x="240" y="40" width="110" height="140" as="geometry" />
        </mxCell>
        <mxCell id="PGVaX1nrfL_rUsU0WxcV-24" style="edgeStyle=orthogonalEdgeStyle;rounded=0;orthogonalLoop=1;jettySize=auto;html=1;exitX=0;exitY=0.5;exitDx=0;exitDy=0;entryX=1;entryY=0.5;entryDx=0;entryDy=0;" edge="1" parent="1" source="PGVaX1nrfL_rUsU0WxcV-5" target="PGVaX1nrfL_rUsU0WxcV-9">
          <mxGeometry relative="1" as="geometry" />
        </mxCell>
        <mxCell id="PGVaX1nrfL_rUsU0WxcV-25" style="edgeStyle=orthogonalEdgeStyle;rounded=0;orthogonalLoop=1;jettySize=auto;html=1;exitX=1;exitY=0.5;exitDx=0;exitDy=0;entryX=0;entryY=0.5;entryDx=0;entryDy=0;" edge="1" parent="1" source="PGVaX1nrfL_rUsU0WxcV-5" target="PGVaX1nrfL_rUsU0WxcV-10">
          <mxGeometry relative="1" as="geometry" />
        </mxCell>
        <mxCell id="PGVaX1nrfL_rUsU0WxcV-5" value="Tech" style="swimlane;" vertex="1" parent="1">
          <mxGeometry x="240" y="280" width="110" height="140" as="geometry" />
        </mxCell>
        <mxCell id="PGVaX1nrfL_rUsU0WxcV-9" value="Tech-user" style="swimlane;startSize=23;" vertex="1" parent="1">
          <mxGeometry x="40" y="280" width="110" height="140" as="geometry" />
        </mxCell>
        <mxCell id="PGVaX1nrfL_rUsU0WxcV-10" value="Tech-project" style="swimlane;" vertex="1" parent="1">
          <mxGeometry x="440" y="280" width="110" height="140" as="geometry" />
        </mxCell>
        <mxCell id="PGVaX1nrfL_rUsU0WxcV-28" style="edgeStyle=orthogonalEdgeStyle;rounded=0;orthogonalLoop=1;jettySize=auto;html=1;exitX=0;exitY=0.5;exitDx=0;exitDy=0;entryX=1;entryY=0.5;entryDx=0;entryDy=0;" edge="1" parent="1" source="PGVaX1nrfL_rUsU0WxcV-11" target="PGVaX1nrfL_rUsU0WxcV-12">
          <mxGeometry relative="1" as="geometry" />
        </mxCell>
        <mxCell id="PGVaX1nrfL_rUsU0WxcV-29" style="edgeStyle=orthogonalEdgeStyle;rounded=0;orthogonalLoop=1;jettySize=auto;html=1;exitX=1;exitY=0.5;exitDx=0;exitDy=0;entryX=0;entryY=0.5;entryDx=0;entryDy=0;" edge="1" parent="1" source="PGVaX1nrfL_rUsU0WxcV-11" target="PGVaX1nrfL_rUsU0WxcV-16">
          <mxGeometry relative="1" as="geometry" />
        </mxCell>
        <mxCell id="PGVaX1nrfL_rUsU0WxcV-33" style="edgeStyle=orthogonalEdgeStyle;rounded=0;orthogonalLoop=1;jettySize=auto;html=1;exitX=0.5;exitY=0;exitDx=0;exitDy=0;entryX=0.5;entryY=1;entryDx=0;entryDy=0;" edge="1" parent="1" source="PGVaX1nrfL_rUsU0WxcV-11" target="PGVaX1nrfL_rUsU0WxcV-10">
          <mxGeometry relative="1" as="geometry" />
        </mxCell>
        <mxCell id="PGVaX1nrfL_rUsU0WxcV-11" value="Project" style="swimlane;" vertex="1" parent="1">
          <mxGeometry x="240" y="520" width="110" height="140" as="geometry" />
        </mxCell>
        <mxCell id="PGVaX1nrfL_rUsU0WxcV-12" value="User-project" style="swimlane;" vertex="1" parent="1">
          <mxGeometry x="40" y="520" width="110" height="140" as="geometry" />
        </mxCell>
        <mxCell id="PGVaX1nrfL_rUsU0WxcV-31" style="edgeStyle=orthogonalEdgeStyle;rounded=0;orthogonalLoop=1;jettySize=auto;html=1;exitX=0.5;exitY=0;exitDx=0;exitDy=0;entryX=0.25;entryY=1;entryDx=0;entryDy=0;" edge="1" parent="1" source="PGVaX1nrfL_rUsU0WxcV-14" target="PGVaX1nrfL_rUsU0WxcV-11">
          <mxGeometry relative="1" as="geometry" />
        </mxCell>
        <mxCell id="PGVaX1nrfL_rUsU0WxcV-14" value="Customer" style="swimlane;" vertex="1" parent="1">
          <mxGeometry x="40" y="720" width="110" height="140" as="geometry" />
        </mxCell>
        <mxCell id="PGVaX1nrfL_rUsU0WxcV-30" style="edgeStyle=orthogonalEdgeStyle;rounded=0;orthogonalLoop=1;jettySize=auto;html=1;exitX=0.5;exitY=0;exitDx=0;exitDy=0;entryX=0.5;entryY=1;entryDx=0;entryDy=0;" edge="1" parent="1" source="PGVaX1nrfL_rUsU0WxcV-15" target="PGVaX1nrfL_rUsU0WxcV-11">
          <mxGeometry relative="1" as="geometry" />
        </mxCell>
        <mxCell id="PGVaX1nrfL_rUsU0WxcV-15" value="Type" style="swimlane;" vertex="1" parent="1">
          <mxGeometry x="240" y="720" width="110" height="140" as="geometry" />
        </mxCell>
        <mxCell id="PGVaX1nrfL_rUsU0WxcV-16" value="Unit-project" style="swimlane;" vertex="1" parent="1">
          <mxGeometry x="440" y="520" width="110" height="140" as="geometry" />
        </mxCell>
        <mxCell id="PGVaX1nrfL_rUsU0WxcV-21" style="edgeStyle=orthogonalEdgeStyle;rounded=0;orthogonalLoop=1;jettySize=auto;html=1;exitX=0;exitY=0.5;exitDx=0;exitDy=0;entryX=1;entryY=0.5;entryDx=0;entryDy=0;" edge="1" parent="1" source="PGVaX1nrfL_rUsU0WxcV-17" target="PGVaX1nrfL_rUsU0WxcV-16">
          <mxGeometry relative="1" as="geometry" />
        </mxCell>
        <mxCell id="PGVaX1nrfL_rUsU0WxcV-17" value="Unit" style="swimlane;" vertex="1" parent="1">
          <mxGeometry x="640" y="520" width="110" height="140" as="geometry" />
        </mxCell>
        <mxCell id="PGVaX1nrfL_rUsU0WxcV-20" style="edgeStyle=orthogonalEdgeStyle;rounded=0;orthogonalLoop=1;jettySize=auto;html=1;exitX=0.5;exitY=1;exitDx=0;exitDy=0;entryX=0.5;entryY=0;entryDx=0;entryDy=0;" edge="1" parent="1" source="PGVaX1nrfL_rUsU0WxcV-18" target="PGVaX1nrfL_rUsU0WxcV-17">
          <mxGeometry relative="1" as="geometry" />
        </mxCell>
        <mxCell id="PGVaX1nrfL_rUsU0WxcV-18" value="User-unit" style="swimlane;" vertex="1" parent="1">
          <mxGeometry x="640" y="40" width="110" height="140" as="geometry" />
        </mxCell>
      </root>
    </mxGraphModel>
  </diagram>
</mxfile>
